<svg id="aebfbbc0-5298-43a2-a283-8bcdd3aa94df" data-name="Capa 1" xmlns="http://www.w3.org/2000/svg" viewBox="0 0 86.97 116.96"><defs><style>.bbea15e1-efa4-4862-9fca-23222be91897{fill:#020202;}</style></defs><title>decorador</title><path d="M30.92,58.55l-.45.09C23.18,60.06,19.19,63.45,18.34,69c-.72,4.68,2.1,10.16,5.91,11.49s8.65-.78,10.8-4.7A8.81,8.81,0,0,0,35.1,67a2.82,2.82,0,0,0-2.81-1.31,5.52,5.52,0,0,0-4.74,3.52,10.15,10.15,0,0,0-.74,7.38,4.67,4.67,0,0,1-5.52-1.77c-1.95-2.89-1.22-7.46,1.08-10.1,4.45-5.13,15.2-5.59,21.37-.92,6.48,4.9,7.77,13.48,3.09,20.63-3.07,4.7-6.55,6.09-11.77,4.75a1.15,1.15,0,0,0-.66.08,2.8,2.8,0,0,0,.09,1.23c1.1,2.37,3.25,3.11,5.77,3.45-1.21.87-2.31,1.6-3.36,2.41-5.8,4.46-7.48,13.86-3.53,19.71.34.5.71,1,1.43.83a1.12,1.12,0,0,0,.9-1.16,25.1,25.1,0,0,1,2.77-10.43c3.32-6.85,8.12-12.87,11.12-19.89,5.7-13.31-.7-25.47-14.29-27,.19-.05.3-.09.42-.11,10.11-1.57,16.5-10,15.09-20.05-.94-6.68-4.8-12-8.38-17.47-4-6-8.42-11.79-9.06-19.36C33.31.8,33.17.19,32.4,0s-1,.33-1.37.82C27.78,5.91,29,15,33.48,18.94c1.59,1.4,3.41,2.55,5.14,3.83-2.38.43-4.51,1.27-5.48,3.75a3.72,3.72,0,0,0,0,1.16,3.35,3.35,0,0,0,1.18-.22,4.73,4.73,0,0,1,3.46-.94c5.87,1,11.73,8.94,11.25,15.21-.7,9.15-7.92,15.16-17.57,14.6-7.62-.44-11.88-4.29-11.6-10.47.17-3.7,3.5-6.5,6.19-5.2-.56,3.43,0,6.6,2.51,9.14,2,2,5.27,2.05,6.17.18a8.65,8.65,0,0,0-.65-9.21c-2.08-3-5-4.68-8.66-4.28-5.85.64-9.49,8.45-6.78,14.49C20.92,56.13,25.59,57.73,30.92,58.55Z"/><path d="M87,58.57a5,5,0,0,0-.62-.25c-8.93-1.87-17.85-3.79-26.8-5.59-4.18-.83-7.26,1.18-7.89,4.87a5.86,5.86,0,0,0,5.1,6.78c3,.34,6-.67,8.95-1.28C72.7,61.66,79.67,60.13,87,58.57Z"/><path d="M9.34,63.25l8.91-4.45c-2.58-1.16-4.94-2.22-7.31-3.27-.62-.27-1.52-.87-1.88-.65A66.19,66.19,0,0,1,0,59.18,51.34,51.34,0,0,1,9.34,63.25Z"/><path class="bbea15e1-efa4-4862-9fca-23222be91897" d="M30.92,58.55c-5.33-.82-10-2.42-12.31-7.57-2.71-6,.93-13.85,6.78-14.49,3.64-.4,6.58,1.31,8.66,4.28A8.65,8.65,0,0,1,34.7,50c-.9,1.87-4.2,1.79-6.17-.18C26,47.26,25.46,44.09,26,40.66c-2.69-1.3-6,1.5-6.19,5.2-.28,6.18,4,10,11.6,10.47,9.65.56,16.87-5.45,17.57-14.6.48-6.27-5.38-14.19-11.25-15.21a4.73,4.73,0,0,0-3.46.94,3.35,3.35,0,0,1-1.18.22,3.72,3.72,0,0,1,0-1.16c1-2.48,3.1-3.32,5.48-3.75-1.73-1.28-3.55-2.43-5.14-3.83C29,15,27.78,5.91,31,.85c.32-.49.68-1,1.37-.82s.91.77,1,1.44C34,9,38.48,14.81,42.43,20.83,46,26.28,49.87,31.62,50.81,38.3c1.41,10.06-5,18.48-15.09,20.05-.12,0-.23.06-.42.11,13.59,1.51,20,13.67,14.29,27-3,7-7.8,13-11.12,19.89a25.1,25.1,0,0,0-2.77,10.43,1.12,1.12,0,0,1-.9,1.16c-.72.17-1.09-.33-1.43-.83-3.95-5.85-2.27-15.25,3.53-19.71,1.05-.81,2.15-1.54,3.36-2.41-2.52-.34-4.67-1.08-5.77-3.45a2.8,2.8,0,0,1-.09-1.23,1.15,1.15,0,0,1,.66-.08c5.22,1.34,8.7,0,11.77-4.75,4.68-7.15,3.39-15.73-3.09-20.63-6.17-4.67-16.92-4.21-21.37.92-2.3,2.64-3,7.21-1.08,10.1a4.67,4.67,0,0,0,5.52,1.77,10.15,10.15,0,0,1,.74-7.38,5.52,5.52,0,0,1,4.74-3.52A2.82,2.82,0,0,1,35.1,67a8.81,8.81,0,0,1-.05,8.71c-2.15,3.92-7,6-10.8,4.7S17.62,73.63,18.34,69c.85-5.5,4.84-8.89,12.13-10.31Z"/><path class="bbea15e1-efa4-4862-9fca-23222be91897" d="M87,58.57c-7.3,1.56-14.27,3.09-21.26,4.53-2.95.61-5.91,1.62-8.95,1.28a5.86,5.86,0,0,1-5.1-6.78c.63-3.69,3.71-5.7,7.89-4.87,9,1.8,17.87,3.72,26.8,5.59A5,5,0,0,1,87,58.57Z"/><path class="bbea15e1-efa4-4862-9fca-23222be91897" d="M9.34,63.25A51.34,51.34,0,0,0,0,59.18a66.19,66.19,0,0,0,9.06-4.3c.36-.22,1.26.38,1.88.65,2.37,1,4.73,2.11,7.31,3.27Z"/></svg>