<svg id="logo" xmlns="http://www.w3.org/2000/svg" viewBox="0 0 483.95 101.8">
  <defs>
    <style>
      .cls-1 {
        fill: #ff007a;
      }

      .cls-2 {
        fill: #fff;
      }

      .cls-3 {
        fill: #366bf8;
      }

      .cls-4 {
        fill: #f20487;
      }
    </style>
  </defs>
  <title>evently_light</title>
  <g id="cuadro">
    <rect class="cls-1" x="8.56" y="8.39" width="85.1" height="85.1" rx="22.32" ry="22.32" transform="translate(49.72 -21.25) rotate(44.16)"/>
  </g>
  <path id="e" class="cls-2" d="M28.51,50.35A35.7,35.7,0,0,1,30.63,37a21,21,0,0,1,5.61-8.22,19.6,19.6,0,0,1,8-4.16,36.65,36.65,0,0,1,9.2-1.16,25.79,25.79,0,0,1,9.88,1.63,15.17,15.17,0,0,1,6.23,4.55,17.41,17.41,0,0,1,3.24,7,40,40,0,0,1,.94,9c0,1.54-.06,3.14-.17,4.78s-.27,3.33-.47,5.07H40.52a22,22,0,0,0,.77,5.88,8.32,8.32,0,0,0,2.36,3.89A9.82,9.82,0,0,0,48,67.46a29.67,29.67,0,0,0,6.82.66c2.3,0,4.45-.05,6.45-.17s3.76-.25,5.27-.42c1.77-.16,3.38-.38,4.83-.64v8.18a52.15,52.15,0,0,1-5.47,1.67c-1.67.43-3.63.81-5.86,1.16a47.41,47.41,0,0,1-7.14.51A33.81,33.81,0,0,1,42.59,77a17.86,17.86,0,0,1-7.66-4.77,21.91,21.91,0,0,1-4.77-8.7A45.18,45.18,0,0,1,28.51,50.35Zm34.42-3.6V44.88a32.36,32.36,0,0,0-.37-5.17,7.88,7.88,0,0,0-1.5-3.63A6.73,6.73,0,0,0,57.86,34a18,18,0,0,0-5.52-.69,17.57,17.57,0,0,0-6,.87,7.76,7.76,0,0,0-3.64,2.57,9.58,9.58,0,0,0-1.78,4.22,32.44,32.44,0,0,0-.47,5.83Z" transform="translate(-0.21 -0.04)"/>
  <path class="cls-3" d="M127.62,50.35a35.53,35.53,0,0,1,2.1-13.23A20.68,20.68,0,0,1,135.29,29a19.4,19.4,0,0,1,7.91-4.13,36.55,36.55,0,0,1,9.13-1.15,25.82,25.82,0,0,1,9.79,1.61,15.07,15.07,0,0,1,6.17,4.52,17.33,17.33,0,0,1,3.23,7,40.57,40.57,0,0,1,.92,8.93c0,1.53-.05,3.11-.17,4.74s-.27,3.3-.46,5H139.53a22,22,0,0,0,.76,5.83,8.27,8.27,0,0,0,2.34,3.86A9.68,9.68,0,0,0,147,67.32a29.17,29.17,0,0,0,6.76.66q3.42,0,6.4-.17c2-.12,3.73-.25,5.22-.42,1.76-.16,3.36-.37,4.79-.63v8.1a49,49,0,0,1-5.42,1.66q-2.49.65-5.81,1.15a46.79,46.79,0,0,1-7.08.51,33.64,33.64,0,0,1-10.26-1.44A17.61,17.61,0,0,1,134,72a21.58,21.58,0,0,1-4.73-8.62A44.54,44.54,0,0,1,127.62,50.35Zm34.13-3.56V44.93a30.81,30.81,0,0,0-.37-5.13,7.74,7.74,0,0,0-1.49-3.6,6.5,6.5,0,0,0-3.17-2.1,21.6,21.6,0,0,0-11.45.17,7.76,7.76,0,0,0-3.61,2.55A9.56,9.56,0,0,0,139.9,41a31.85,31.85,0,0,0-.46,5.78Z" transform="translate(-0.21 -0.04)"/>
  <path class="cls-3" d="M176.3,25.16h12.6l12.69,40.72h.2l12.69-40.72h12.6L209.31,76.67H194.12Z" transform="translate(-0.21 -0.04)"/>
  <path class="cls-3" d="M232,50.35a35.55,35.55,0,0,1,2.09-13.23A20.79,20.79,0,0,1,239.63,29a19.46,19.46,0,0,1,7.91-4.13,36.61,36.61,0,0,1,9.13-1.15,25.78,25.78,0,0,1,9.79,1.61,15,15,0,0,1,6.18,4.52,17.32,17.32,0,0,1,3.22,7,40,40,0,0,1,.93,8.93c0,1.53-.06,3.11-.17,4.74s-.27,3.3-.47,5H243.88a21.21,21.21,0,0,0,.76,5.83A8.27,8.27,0,0,0,247,65.17a9.68,9.68,0,0,0,4.35,2.15,29.11,29.11,0,0,0,6.76.66q3.42,0,6.39-.17c2-.12,3.73-.25,5.23-.42,1.76-.16,3.35-.37,4.78-.63v8.1a48.3,48.3,0,0,1-5.42,1.66,59.12,59.12,0,0,1-5.81,1.15,46.6,46.6,0,0,1-7.08.51,33.52,33.52,0,0,1-10.25-1.44A17.49,17.49,0,0,1,238.34,72a21.6,21.6,0,0,1-4.74-8.62A44.91,44.91,0,0,1,232,50.35Zm34.13-3.56V44.93a31.92,31.92,0,0,0-.37-5.13,7.74,7.74,0,0,0-1.49-3.6,6.59,6.59,0,0,0-3.17-2.1,21.6,21.6,0,0,0-11.45.17A7.84,7.84,0,0,0,246,36.82,9.55,9.55,0,0,0,244.25,41a31.78,31.78,0,0,0-.47,5.78Z" transform="translate(-0.21 -0.04)"/>
  <path class="cls-3" d="M288.46,25.16H297L298.38,29a43.49,43.49,0,0,1,5.87-2.64,59.93,59.93,0,0,1,6.3-1.81,33.8,33.8,0,0,1,7.63-.83q7.62,0,11.27,4c2.42,2.66,3.64,6.81,3.64,12.48V76.67H321.47V41.56a19,19,0,0,0-.27-3.44,4.39,4.39,0,0,0-1.15-2.34,5.39,5.39,0,0,0-2.53-1.35,18.09,18.09,0,0,0-4.43-.43,35.76,35.76,0,0,0-5.31.36c-1.59.25-3,.5-4.1.76a33.26,33.26,0,0,0-3.6,1.07V76.67H288.46Z" transform="translate(-0.21 -0.04)"/>
  <path class="cls-3" d="M352.77,34.78h-7.62V25.16h7.62V14.27l11.62-2.59V25.16h13v9.62h-13V62.46a13.58,13.58,0,0,0,.27,3,3.72,3.72,0,0,0,1,1.88,3.89,3.89,0,0,0,2,1,17,17,0,0,0,3.35.27c1.27,0,2.42,0,3.44-.08s1.9-.1,2.61-.17,1.6-.15,2.25-.24v7.71A34.12,34.12,0,0,1,375.62,77c-1.14.3-2.48.56-4,.81a32.49,32.49,0,0,1-5,.36,24.25,24.25,0,0,1-6.44-.73,10.45,10.45,0,0,1-4.26-2.22,8.46,8.46,0,0,1-2.38-3.76,17.23,17.23,0,0,1-.73-5.3Z" transform="translate(-0.21 -0.04)"/>
  <path class="cls-3" d="M391.34.79H403V76.67H391.34Z" transform="translate(-0.21 -0.04)"/>
  <path class="cls-3" d="M418.78,91.47c1,.09,2.52.14,4.54.14a11,11,0,0,0,2.91-.34,5.52,5.52,0,0,0,2.15-1.12A8.44,8.44,0,0,0,430,88.21a17,17,0,0,0,1.34-2.88l3.17-8.66h-5L411.6,25.16h12.89l13.24,41.31h.39L451.4,25.16h12.79l-22.07,62.2a45.13,45.13,0,0,1-2.81,6.43A17.65,17.65,0,0,1,436.19,98a10.65,10.65,0,0,1-3.66,2.34,12.32,12.32,0,0,1-4.32.74,40.4,40.4,0,0,1-4.72-.25,29.18,29.18,0,0,1-3.44-.59,21.72,21.72,0,0,1-2.83-.88V91.32C417.67,91.38,418.2,91.43,418.78,91.47Z" transform="translate(-0.21 -0.04)"/>
  <path class="cls-4" d="M469.22,69.88a17.94,17.94,0,0,1,.32-3.73A4.05,4.05,0,0,1,473,62.76a18.25,18.25,0,0,1,3.63-.3,18.92,18.92,0,0,1,3.71.3,4.27,4.27,0,0,1,2.3,1.12,4.67,4.67,0,0,1,1.17,2.27,16.51,16.51,0,0,1,.34,3.73,16.3,16.3,0,0,1-.34,3.69,4.87,4.87,0,0,1-1.17,2.3,4.38,4.38,0,0,1-2.3,1.17,18.09,18.09,0,0,1-3.71.31A17.45,17.45,0,0,1,473,77a4.17,4.17,0,0,1-3.47-3.47A17.72,17.72,0,0,1,469.22,69.88Z" transform="translate(-0.21 -0.04)"/>
</svg>
