<svg version="1.1" id="Capa_1" xmlns="http://www.w3.org/2000/svg" xmlns:xlink="http://www.w3.org/1999/xlink" x="0px" y="0px"
	 viewBox="0 0 188.8 188.8" style="enable-background:new 0 0 188.8 188.8;" xml:space="preserve">
<style type="text/css">
	.st0{fill:#000000; stroke:#000000;}
	.st1{fill:#000000; stroke:#000000;}
  @media (prefers-color-scheme: dark) {
      .st0{fill:#ffffff; stroke:#ffffff;}
      .st1{fill:#ffffff; stroke:#ffffff;}
    }
</style>
<g>
	<path class="st0" d="M159-0.5H30C13.2-0.5-0.4,13.1-0.4,29.9v129c0,16.8,13.6,30.4,30.4,30.4h129c16.8,0,30.4-13.6,30.4-30.4v-129
		C189.4,13.1,175.7-0.5,159-0.5z M180.4,158.9c0,11.8-9.6,21.4-21.4,21.4H30c-11.8,0-21.4-9.6-21.4-21.4v-129
		C8.6,18.1,18.2,8.5,30,8.5h129c11.8,0,21.4,9.6,21.4,21.4V158.9z"/>
	<path class="st1" d="M94.6,31.8c-25.8,0-44.1-0.2-54.9-0.5c0.8,11.4,1.2,21.5,1.2,30.5c0,5.6-0.2,10.2-0.5,13.6h4.1c2-10,4.4-18,7.3-23.8
		c2.8-5.8,6.2-10,10.2-12.5c4-2.5,8.8-3.8,14.5-3.8h3.9v102.4c0,5-0.5,8.7-1.5,10.9c-1,2.3-2.8,3.8-5.3,4.6
		c-2.5,0.8-6.6,1.2-12.2,1.3v2.8c14.2-0.4,24.9-0.5,32.4-0.5c7.5,0,18.8,0.2,33.6,0.5v-2.8c-5.6-0.1-9.6-0.6-12.2-1.3
		c-2.5-0.8-4.3-2.3-5.3-4.6c-1-2.3-1.5-5.9-1.5-10.9V35.4h4.1c8.5,0,15.2,3,20.2,9c4.9,6,8.8,16.3,11.6,31h4.3
		c-0.4-3.5-0.5-8-0.5-13.6c0-9,0.4-19.1,1.2-30.5C138.6,31.6,120.4,31.8,94.6,31.8z"/>
</g>
</svg>
